<?xml version="1.0" standalone="no"?>
<!DOCTYPE svg PUBLIC "-//W3C//DTD SVG 20010904//EN"
 "http://www.w3.org/TR/2001/REC-SVG-20010904/DTD/svg10.dtd">
<svg version="1.0" xmlns="http://www.w3.org/2000/svg"
 width="4400.000000pt" height="4400.000000pt" viewBox="0 0 4400.000000 4400.000000"
 preserveAspectRatio="xMidYMid meet">
<metadata>
Created by potrace 1.14, written by Peter Selinger 2001-2017
</metadata>
<g transform="translate(0.000000,4400.000000) scale(0.100000,-0.100000)"
fill="#000000" stroke="none">
<path d="M17389 33756 c-2 -2 -27 -6 -56 -10 -211 -25 -422 -104 -613 -231
-92 -61 -116 -80 -197 -157 -135 -127 -241 -272 -321 -440 -36 -75 -96 -251
-107 -313 -4 -22 -9 -49 -12 -60 -2 -11 -7 -49 -11 -85 -9 -87 -9 -9189 1
-9265 20 -166 68 -327 138 -472 150 -305 405 -554 715 -694 117 -53 285 -102
398 -116 80 -10 375 -10 450 0 80 11 236 52 316 84 78 31 224 104 228 115 2 4
8 8 14 8 38 0 294 222 363 315 16 22 33 42 36 45 16 14 83 118 123 192 63 117
126 287 142 388 3 19 7 37 9 40 3 5 15 102 21 175 1 17 3 715 3 1551 l1 1522
1853 -2 1852 -1 930 -1857 c512 -1021 947 -1883 967 -1915 103 -165 211 -278
413 -431 108 -82 382 -193 539 -218 21 -3 48 -8 60 -11 40 -10 421 -12 481 -3
282 44 494 150 686 343 105 105 222 276 267 392 6 17 17 44 23 60 7 17 13 35
15 40 57 211 71 343 51 505 -25 215 -7 174 -830 1824 l-764 1529 46 20 c432
188 764 418 1121 776 497 498 888 1165 1065 1814 14 53 28 105 30 115 40 186
51 242 61 317 20 158 27 267 27 410 0 123 -10 344 -17 382 -2 10 -7 47 -11 83
-19 180 -92 503 -160 705 -74 220 -191 482 -295 660 -29 50 -58 99 -64 110
-31 55 -155 232 -230 329 -190 244 -365 420 -651 654 -55 45 -217 158 -308
215 -126 78 -320 185 -344 188 -5 1 -19 10 -32 20 -13 11 -31 19 -40 19 -10 0
-21 4 -27 8 -5 5 -34 19 -64 31 -30 13 -71 30 -90 38 -19 8 -44 19 -55 23
-124 53 -471 148 -655 181 -117 20 -143 24 -235 34 -33 4 -71 10 -85 13 -27 7
-7163 15 -7171 8z m7009 -2984 c80 -22 183 -68 246 -111 50 -34 147 -134 185
-191 52 -77 94 -169 107 -230 4 -19 9 -42 12 -50 11 -42 8 -227 -4 -286 -30
-140 -108 -282 -213 -383 -92 -89 -191 -145 -326 -185 -70 -20 -82 -20 -2385
-22 -1480 -2 -2333 1 -2365 7 -28 6 -60 12 -73 15 -47 9 -154 57 -210 94 -118
77 -197 164 -261 286 -122 236 -103 538 49 759 111 162 323 292 507 311 32 4
59 7 60 8 1 0 1033 1 2295 0 l2293 0 83 -22z"/>
<path d="M7618 30155 c-2 -2 -66 -6 -143 -10 -77 -3 -153 -8 -170 -10 -16 -2
-57 -6 -90 -9 -33 -3 -78 -8 -100 -11 -113 -14 -133 -16 -165 -21 -19 -3 -42
-7 -50 -9 -8 -2 -37 -7 -65 -10 -143 -18 -551 -115 -780 -186 -115 -36 -410
-142 -471 -170 -22 -10 -63 -27 -91 -38 -100 -39 -316 -144 -503 -244 -161
-86 -369 -216 -591 -368 -65 -45 -263 -197 -344 -264 -369 -306 -692 -644
-971 -1015 -143 -190 -301 -428 -386 -579 -11 -20 -40 -70 -63 -111 -48 -86
-147 -280 -198 -390 -123 -263 -298 -745 -342 -940 -1 -8 -8 -35 -15 -60 -7
-25 -14 -52 -15 -60 -2 -8 -15 -67 -30 -130 -27 -123 -32 -146 -41 -199 -3
-18 -8 -43 -10 -55 -2 -11 -7 -37 -10 -56 -26 -168 -34 -222 -39 -265 -2 -27
-7 -72 -10 -100 -20 -171 -29 -361 -29 -630 0 -214 9 -464 19 -515 2 -8 6 -49
9 -90 4 -41 9 -86 11 -100 2 -14 7 -45 10 -70 9 -68 34 -232 40 -260 2 -14 14
-72 26 -130 189 -946 618 -1845 1237 -2594 164 -199 456 -503 632 -658 730
-644 1579 -1094 2495 -1322 142 -36 402 -90 485 -101 25 -3 70 -10 100 -15 30
-5 78 -12 105 -15 28 -3 64 -8 80 -10 30 -4 138 -15 205 -20 166 -15 682 -18
2705 -18 1775 0 2349 3 2410 12 127 20 133 21 162 32 15 6 29 10 31 10 6 -3
60 12 92 24 97 36 197 80 211 92 8 7 19 13 22 13 11 0 107 60 167 105 333 244
552 626 596 1035 8 80 8 277 -1 333 -13 85 -14 88 -31 172 -10 54 -65 208
-100 285 -151 327 -446 608 -778 740 -95 38 -216 75 -271 84 -22 3 -51 8 -64
11 -73 15 -395 17 -2561 20 -1301 1 -2378 5 -2395 7 -16 3 -52 8 -80 12 -94
12 -140 19 -160 22 -103 20 -100 19 -230 52 -872 222 -1621 866 -1978 1704
-52 121 -119 314 -143 413 -23 95 -44 188 -48 220 -4 22 -11 67 -16 100 -22
142 -30 256 -30 435 1 276 26 473 95 755 3 11 21 72 41 135 201 640 628 1206
1195 1581 116 77 165 105 309 177 97 49 271 126 310 137 3 0 55 17 116 37 128
42 342 92 464 108 47 6 96 14 110 17 49 10 679 14 2795 16 1177 2 2156 6 2175
10 19 4 51 9 70 12 119 19 290 79 417 146 147 77 241 147 364 269 280 279 430
640 432 1039 1 77 -12 241 -19 253 -3 4 -7 22 -9 40 -10 89 -61 240 -125 369
-81 164 -161 274 -300 409 -204 199 -462 335 -740 389 -30 6 -68 14 -85 17
-26 6 -4851 14 -4857 9z"/>
<path d="M31677 26564 c-1 -1 -44 -4 -95 -8 -181 -13 -348 -59 -527 -147 -430
-211 -721 -600 -810 -1084 -3 -16 -9 -66 -12 -110 -9 -104 -9 -9076 0 -9176 3
-41 8 -82 11 -90 3 -7 8 -32 11 -54 15 -106 71 -267 138 -395 101 -193 284
-404 454 -523 74 -52 237 -142 318 -174 88 -36 241 -74 365 -91 63 -9 303 -7
375 2 226 29 443 114 659 258 82 55 223 187 291 273 22 28 42 52 45 55 13 12
98 150 127 205 55 105 114 270 128 355 3 14 11 61 19 105 13 69 15 402 16
2364 0 1257 2 2286 4 2288 1 2 243 -477 537 -1064 293 -588 552 -1102 576
-1143 233 -417 652 -690 1128 -736 89 -8 1358 -8 1445 1 436 42 824 274 1065
635 41 62 261 491 619 1206 305 610 556 1105 556 1099 1 -5 2 -1043 4 -2305 1
-1262 5 -2304 8 -2315 3 -11 9 -42 12 -70 8 -53 48 -206 67 -252 52 -127 100
-222 156 -305 141 -213 345 -394 571 -507 145 -72 262 -110 467 -149 70 -13
361 -5 460 12 405 72 766 314 992 666 74 115 166 330 188 439 42 206 40 -107
40 4786 0 2525 -3 4615 -7 4645 -53 415 -277 790 -618 1032 -137 97 -390 210
-520 233 -19 3 -53 10 -75 15 -81 18 -199 23 -545 23 -406 0 -462 -4 -620 -39
-118 -27 -191 -51 -295 -99 -33 -16 -62 -29 -65 -30 -10 -3 -72 -40 -125 -75
-162 -106 -321 -272 -432 -451 -23 -36 -620 -1224 -1328 -2640 -708 -1416
-1290 -2577 -1294 -2582 -4 -4 -590 1157 -1302 2580 -764 1528 -1318 2625
-1353 2678 -89 135 -176 231 -326 357 -44 37 -153 104 -236 147 -78 40 -257
104 -319 115 -17 3 -55 10 -85 16 -95 18 -196 23 -533 24 -181 0 -329 0 -330
0z"/>
<path d="M16657 20094 c-1 -1 -42 -4 -92 -7 -402 -25 -824 -218 -1119 -511
-230 -230 -390 -501 -474 -806 -12 -41 -23 -86 -26 -100 -3 -14 -7 -34 -9 -45
-4 -19 -15 -94 -23 -160 -6 -47 -5 -306 1 -345 3 -19 7 -53 10 -75 13 -106 60
-287 102 -393 205 -512 608 -894 1121 -1062 111 -36 285 -74 387 -83 22 -2
-3132 -5 -7010 -6 -3877 -1 -7075 -4 -7106 -6 -31 -1 -74 -6 -95 -9 -22 -3
-57 -9 -79 -12 -50 -7 -225 -50 -285 -70 -58 -20 -206 -83 -245 -104 -136 -77
-251 -154 -338 -228 -55 -47 -202 -196 -232 -237 -17 -22 -35 -46 -42 -53 -31
-32 -126 -188 -175 -287 -81 -161 -126 -303 -174 -550 -9 -51 -12 -376 -4
-440 17 -122 23 -152 46 -245 128 -503 492 -949 954 -1171 58 -28 85 -40 155
-70 65 -27 272 -81 365 -95 25 -3 52 -8 60 -9 8 -2 39 -4 69 -4 74 -1 62 -7
-34 -16 -99 -10 -147 -17 -205 -30 -3 -1 -21 -5 -40 -9 -229 -52 -571 -225
-735 -372 -215 -192 -352 -368 -460 -589 -43 -89 -135 -329 -134 -350 0 -3 -4
-29 -10 -58 -31 -153 -36 -204 -36 -372 0 -195 9 -280 46 -430 84 -334 252
-628 497 -864 91 -88 263 -222 329 -256 21 -10 49 -26 63 -35 92 -59 357 -157
500 -185 177 -34 -349 -34 19840 -32 10788 2 19630 6 19648 9 18 4 52 10 75
13 99 14 302 75 407 122 131 58 332 175 378 220 8 7 30 25 50 40 58 43 232
222 285 293 26 36 54 72 60 80 13 16 78 125 120 201 77 140 156 394 181 586
13 96 14 405 2 468 -4 17 -13 68 -22 114 -32 174 -125 415 -224 576 -119 195
-318 413 -468 514 -21 13 -39 27 -42 30 -9 11 -69 51 -76 51 -3 0 -18 9 -33
19 -114 82 -424 199 -596 227 -20 3 -47 8 -59 10 -81 16 -956 18 -7233 19
-3863 0 -7023 3 -7023 6 0 4 8 6 18 6 71 -3 322 57 453 109 186 73 310 146
495 289 53 42 180 168 241 240 184 218 346 562 387 820 44 281 38 491 -19 740
-73 314 -237 606 -475 847 -178 180 -345 294 -590 401 -137 60 -383 122 -502
126 -55 2 -27 19 45 26 39 5 74 9 77 10 3 1 25 5 50 9 25 4 95 23 157 42 490
151 867 469 1101 929 61 121 129 316 147 425 3 19 8 42 10 50 2 8 7 39 10 69
4 30 9 63 11 75 7 34 7 276 0 341 -6 53 -13 98 -30 195 -30 175 -144 448 -258
619 -184 276 -436 497 -723 635 -76 37 -213 92 -250 100 -5 2 -30 8 -55 15
-76 22 -194 45 -295 57 -47 6 -10792 13 -10798 8z m10763 -3594 c0 -5 -8 -10
-17 -10 -15 0 -16 2 -3 10 19 12 20 12 20 0z m-3 -3596 c-3 -3 -12 -4 -19 -1
-8 3 -5 6 6 6 11 1 17 -2 13 -5z"/>
</g>
</svg>
